<?xml version="1.0" encoding="utf-8" standalone="no"?>
<!DOCTYPE svg PUBLIC "-//W3C//DTD SVG 1.1//EN"
  "http://www.w3.org/Graphics/SVG/1.1/DTD/svg11.dtd">
<svg xmlns:xlink="http://www.w3.org/1999/xlink" width="376pt" height="23pt" viewBox="0 0 376 23" xmlns="http://www.w3.org/2000/svg" version="1.1">
 <metadata>
  <rdf:RDF xmlns:dc="http://purl.org/dc/elements/1.1/" xmlns:cc="http://creativecommons.org/ns#" xmlns:rdf="http://www.w3.org/1999/02/22-rdf-syntax-ns#">
   <cc:Work>
    <dc:type rdf:resource="http://purl.org/dc/dcmitype/StillImage"/>
    <dc:date>2026-09-26T18:43:04.846496</dc:date>
    <dc:format>image/svg+xml</dc:format>
    <dc:creator>
     <cc:Agent>
      <dc:title>Matplotlib v3.11.2, https://matplotlib.org/</dc:title>
     </cc:Agent>
    </dc:creator>
   </cc:Work>
  </rdf:RDF>
 </metadata>
 <defs>
  <style type="text/css">*{stroke-linejoin: round; stroke-linecap: butt}</style>
 </defs>
 <g id="figure_1">
  <g id="patch_1">
   <path d="M 0 23
L 376 23
L 376 0
L 0 0
z
" style="fill: #ffffff"/>
  </g>
  <g id="text_1">
   <!-- $W_e=\max(W,\min(H,1)),\qquad D_i^2=r_{xy,i}^2+W_e^2\quad(\mathrm{XY\ ON})$ -->
   <g transform="translate(0 15) scale(0.16 -0.16)">
    <defs>
     <path id="STIXGeneral-Italic-3a" d="M 5798 4179
L 5798 4077
Q 5613 4019 5526 3936
Q 5440 3853 5306 3597
L 3379 -115
L 3251 -115
L 2931 2784
L 2899 2784
L 1478 -115
L 1357 -115
L 966 3174
Q 915 3622 883 3766
Q 851 3910 781 3981
Q 717 4045 454 4077
L 454 4179
L 1958 4179
L 1958 4077
Q 1696 4051 1597 3987
Q 1498 3923 1498 3750
Q 1498 3667 1504 3622
L 1786 1037
L 2886 3264
L 2835 3680
Q 2810 3923 2723 3993
Q 2637 4064 2355 4077
L 2355 4179
L 3866 4179
L 3866 4077
Q 3616 4051 3523 3987
Q 3430 3923 3430 3770
Q 3430 3750 3436 3715
Q 3443 3680 3443 3674
L 3699 1037
L 4902 3373
Q 5050 3654 5050 3808
Q 5050 4070 4621 4077
L 4621 4179
L 5798 4179
z
" transform="scale(0.015625)"/>
     <path id="STIXGeneral-Italic-48" d="M 2291 698
L 2368 621
Q 1805 -70 1062 -70
Q 672 -70 435 170
Q 198 410 198 806
Q 198 1555 796 2188
Q 1395 2822 2112 2822
Q 2362 2822 2499 2707
Q 2637 2592 2637 2387
Q 2637 1965 2147 1632
Q 1658 1299 819 1190
Q 755 1062 755 800
Q 755 538 918 378
Q 1082 218 1350 218
Q 1562 218 1754 317
Q 1946 416 2291 698
z
M 973 1613
L 864 1331
Q 1581 1504 1894 1805
Q 2214 2112 2214 2426
Q 2214 2675 1990 2675
Q 1722 2675 1430 2364
Q 1139 2054 973 1613
z
" transform="scale(0.015625)"/>
     <path id="STIXGeneral-Regular-20" d="M 4077 2048
L 307 2048
L 307 2470
L 4077 2470
L 4077 2048
z
M 4077 768
L 307 768
L 307 1190
L 4077 1190
L 4077 768
z
" transform="scale(0.015625)"/>
     <path id="STIXGeneral-Regular-50" d="M 4960 0
L 3565 0
L 3565 96
Q 3834 122 3907 208
Q 3981 294 3981 576
L 3981 1894
Q 3981 2278 3869 2444
Q 3757 2611 3488 2611
Q 3264 2611 3107 2521
Q 2950 2432 2803 2221
L 2803 608
Q 2803 301 2896 201
Q 2989 102 3264 96
L 3264 0
L 1830 0
L 1830 96
Q 2112 115 2189 188
Q 2266 262 2266 550
L 2266 1901
Q 2266 2611 1850 2611
Q 1670 2611 1468 2531
Q 1267 2451 1171 2336
Q 1088 2240 1088 2227
L 1088 448
Q 1088 243 1177 176
Q 1267 109 1523 96
L 1523 0
L 102 0
L 102 96
Q 371 102 460 195
Q 550 288 550 563
L 550 2150
Q 550 2387 499 2480
Q 448 2573 326 2573
Q 230 2573 122 2547
L 122 2656
Q 557 2778 1011 2944
L 1062 2925
L 1062 2451
L 1075 2451
Q 1363 2752 1584 2848
Q 1805 2944 2054 2944
Q 2560 2944 2733 2406
Q 3232 2944 3776 2944
Q 4518 2944 4518 1792
L 4518 493
Q 4518 282 4582 202
Q 4646 122 4794 109
L 4960 96
L 4960 0
z
" transform="scale(0.015625)"/>
     <path id="STIXGeneral-Regular-44" d="M 2829 422
L 2829 243
Q 2586 -64 2253 -64
Q 1888 -64 1843 403
L 1837 403
Q 1427 -64 909 -64
Q 608 -64 422 112
Q 237 288 237 602
Q 237 1050 685 1350
Q 992 1555 1837 1869
L 1837 2214
Q 1837 2502 1699 2646
Q 1562 2790 1338 2790
Q 1146 2790 1018 2697
Q 890 2605 890 2477
Q 890 2419 909 2348
Q 928 2278 928 2208
Q 928 2112 841 2029
Q 755 1946 634 1946
Q 525 1946 441 2029
Q 358 2112 358 2240
Q 358 2547 685 2752
Q 986 2944 1421 2944
Q 1939 2944 2176 2656
Q 2291 2522 2323 2384
Q 2355 2246 2355 1946
L 2355 723
Q 2355 301 2554 301
Q 2682 301 2829 422
z
M 1837 813
L 1837 1715
Q 1248 1510 1018 1293
Q 800 1094 800 800
Q 800 557 921 432
Q 1043 307 1242 307
Q 1453 307 1613 410
Q 1747 506 1792 589
Q 1837 672 1837 813
z
" transform="scale(0.015625)"/>
     <path id="STIXGeneral-Regular-5b" d="M 3066 0
L 1779 0
L 1779 96
Q 1939 109 1987 137
Q 2035 166 2035 250
Q 2035 307 1997 365
L 1414 1261
L 909 474
Q 781 275 781 211
Q 781 96 1037 96
L 1037 0
L 109 0
L 109 96
Q 269 109 355 169
Q 442 230 576 422
L 1306 1478
L 704 2400
Q 557 2624 454 2704
Q 352 2784 211 2784
L 154 2784
L 154 2880
L 1478 2880
L 1478 2784
Q 1203 2778 1203 2643
Q 1203 2509 1498 2074
Q 1581 1958 1587 1946
Q 1619 1990 1779 2227
Q 1811 2285 1856 2349
Q 1901 2413 1923 2451
Q 1946 2490 1971 2528
Q 1997 2566 2006 2595
Q 2016 2624 2016 2643
Q 2016 2765 1760 2784
L 1760 2880
L 2771 2880
L 2771 2784
Q 2445 2771 2253 2502
L 1722 1734
L 2541 480
Q 2790 96 3066 96
L 3066 0
z
" transform="scale(0.015625)"/>
     <path id="STIXGeneral-Regular-b" d="M 1946 -1030
L 1869 -1133
Q 1126 -710 716 32
Q 307 774 307 1613
Q 307 3386 1888 4326
L 1946 4224
Q 1293 3667 1075 3126
Q 858 2586 858 1632
Q 858 685 1082 96
Q 1306 -493 1946 -1030
z
" transform="scale(0.015625)"/>
     <path id="STIXGeneral-Regular-f" d="M 531 -902
L 467 -781
Q 998 -422 998 -96
Q 998 -13 909 -13
Q 883 -13 822 -25
Q 762 -38 723 -38
Q 352 -38 352 288
Q 352 454 457 553
Q 563 653 736 653
Q 954 653 1101 496
Q 1248 339 1248 96
Q 1248 -198 1053 -473
Q 858 -749 531 -902
z
" transform="scale(0.015625)"/>
     <path id="STIXGeneral-Regular-4c" d="M 1152 4045
Q 1152 3904 1056 3811
Q 960 3718 819 3718
Q 685 3718 592 3811
Q 499 3904 499 4045
Q 499 4179 595 4275
Q 691 4371 826 4371
Q 966 4371 1059 4275
Q 1152 4179 1152 4045
z
M 1619 0
L 102 0
L 102 96
Q 435 115 521 211
Q 608 307 608 666
L 608 2118
Q 608 2342 563 2432
Q 518 2522 397 2522
Q 243 2522 128 2490
L 128 2592
L 1120 2944
L 1146 2918
L 1146 672
Q 1146 314 1226 218
Q 1306 122 1619 96
L 1619 0
z
" transform="scale(0.015625)"/>
     <path id="STIXGeneral-Regular-51" d="M 3104 0
L 1773 0
L 1779 96
Q 2016 115 2096 233
Q 2176 352 2176 672
L 2176 1946
Q 2176 2592 1709 2592
Q 1549 2592 1408 2515
Q 1267 2438 1050 2227
L 1050 461
Q 1050 269 1136 192
Q 1222 115 1466 96
L 1466 0
L 115 0
L 115 96
Q 358 115 435 214
Q 512 314 512 602
L 512 2157
Q 512 2394 467 2483
Q 422 2573 288 2573
Q 160 2573 102 2547
L 102 2656
Q 550 2784 979 2944
L 1030 2925
L 1030 2426
L 1037 2426
Q 1491 2944 1958 2944
Q 2323 2944 2518 2688
Q 2714 2432 2714 1958
L 2714 544
Q 2714 288 2790 205
Q 2867 122 3104 96
L 3104 0
z
" transform="scale(0.015625)"/>
     <path id="STIXGeneral-Italic-2b" d="M 4922 4179
L 4922 4077
Q 4640 4026 4550 3949
Q 4461 3872 4384 3603
L 3539 525
Q 3520 448 3520 371
Q 3520 237 3616 185
Q 3712 134 4026 102
L 4026 0
L 2272 0
L 2272 102
Q 2598 128 2729 237
Q 2861 346 2925 595
L 3334 2086
L 1510 2086
L 1088 525
Q 1069 461 1069 384
Q 1069 243 1149 192
Q 1229 141 1517 102
L 1517 0
L -51 0
L -51 102
Q 211 128 310 230
Q 410 333 499 653
L 1254 3405
Q 1331 3699 1331 3814
Q 1331 3949 1238 3997
Q 1146 4045 838 4077
L 838 4179
L 2573 4179
L 2573 4077
Q 2285 4058 2141 3955
Q 1997 3853 1933 3622
L 1587 2355
L 3411 2355
L 3706 3405
Q 3795 3738 3795 3808
Q 3795 3930 3692 3994
Q 3590 4058 3334 4077
L 3334 4179
L 4922 4179
z
" transform="scale(0.015625)"/>
     <path id="STIXGeneral-Regular-14" d="M 2522 0
L 755 0
L 755 96
Q 1107 115 1235 227
Q 1363 339 1363 608
L 1363 3482
Q 1363 3795 1171 3795
Q 1082 3795 883 3718
L 710 3654
L 710 3744
L 1856 4326
L 1914 4307
L 1914 486
Q 1914 275 2042 185
Q 2170 96 2522 96
L 2522 0
z
" transform="scale(0.015625)"/>
     <path id="STIXGeneral-Regular-c" d="M 186 4224
L 262 4326
Q 992 3891 1408 3148
Q 1824 2406 1824 1581
Q 1824 -166 243 -1133
L 186 -1030
Q 845 -486 1059 54
Q 1274 595 1274 1562
Q 1274 2534 1059 3120
Q 845 3706 186 4224
z
" transform="scale(0.015625)"/>
     <path id="STIXGeneral-Italic-27" d="M 838 4179
L 2611 4179
Q 3469 4179 3974 3731
Q 4480 3283 4480 2458
Q 4480 1325 3456 531
Q 2778 0 1594 0
L -51 0
L -51 102
Q 224 154 310 230
Q 397 307 474 589
L 1254 3437
Q 1325 3686 1325 3814
Q 1325 3949 1222 4009
Q 1120 4070 838 4077
L 838 4179
z
M 1984 3738
L 1229 1037
Q 1088 525 1088 429
Q 1088 192 1523 192
Q 2470 192 3066 768
Q 3398 1088 3584 1597
Q 3770 2106 3770 2611
Q 3770 3386 3270 3763
Q 2970 3987 2432 3987
Q 2227 3987 2128 3939
Q 2029 3891 1984 3738
z
" transform="scale(0.015625)"/>
     <path id="STIXGeneral-Regular-15" d="M 3034 877
L 2688 0
L 186 0
L 186 77
L 1325 1286
Q 1773 1754 1965 2144
Q 2157 2534 2157 2950
Q 2157 3379 1920 3616
Q 1683 3853 1267 3853
Q 922 3853 720 3673
Q 518 3494 326 3021
L 192 3053
Q 301 3648 630 3987
Q 960 4326 1523 4326
Q 2054 4326 2380 4006
Q 2707 3686 2707 3200
Q 2707 2477 1888 1613
L 832 486
L 2330 486
Q 2541 486 2665 569
Q 2790 653 2944 915
L 3034 877
z
" transform="scale(0.015625)"/>
     <path id="STIXGeneral-Italic-4c" d="M 1690 3834
Q 1690 3699 1597 3603
Q 1504 3507 1376 3507
Q 1235 3507 1152 3600
Q 1069 3693 1069 3846
Q 1069 3994 1155 4090
Q 1242 4186 1370 4186
Q 1498 4186 1594 4080
Q 1690 3974 1690 3834
z
M 1421 730
L 1504 659
Q 1235 243 1049 86
Q 864 -70 627 -70
Q 314 -70 314 282
Q 314 467 454 992
L 762 2125
Q 819 2330 819 2406
Q 819 2502 745 2528
Q 672 2554 410 2560
L 410 2662
Q 704 2688 1434 2822
L 1459 2803
L 858 608
Q 794 390 794 326
Q 794 230 883 230
Q 1043 230 1421 730
z
" transform="scale(0.015625)"/>
     <path id="STIXGeneral-Italic-55" d="M 1126 1427
L 1229 1651
Q 1446 2131 1830 2534
Q 2106 2822 2336 2822
Q 2470 2822 2553 2732
Q 2637 2643 2637 2496
Q 2637 2349 2557 2249
Q 2477 2150 2336 2150
Q 2214 2150 2112 2317
Q 2061 2406 2010 2406
Q 1837 2406 1485 1805
Q 1267 1434 1136 1104
Q 1005 774 774 0
L 288 0
L 806 1869
Q 909 2246 909 2394
Q 909 2560 666 2560
Q 614 2560 467 2541
L 467 2650
L 1459 2822
L 1478 2810
L 1126 1427
z
" transform="scale(0.015625)"/>
     <path id="STIXGeneral-Italic-5b" d="M 1555 2272
L 1632 1907
Q 1971 2426 2179 2624
Q 2387 2822 2598 2822
Q 2714 2822 2787 2755
Q 2861 2688 2861 2585
Q 2861 2483 2800 2419
Q 2739 2355 2643 2355
Q 2586 2355 2490 2409
Q 2394 2464 2310 2464
Q 2125 2464 1683 1690
Q 1683 1606 1734 1402
L 1939 544
Q 2003 282 2131 282
Q 2234 282 2432 538
Q 2451 563 2476 598
Q 2502 634 2521 662
Q 2541 691 2566 717
L 2662 659
Q 2387 230 2227 80
Q 2067 -70 1882 -70
Q 1728 -70 1645 26
Q 1562 122 1504 365
L 1318 1126
L 755 365
Q 557 96 432 13
Q 307 -70 147 -70
Q 0 -70 -86 0
Q -173 70 -173 198
Q -173 294 -112 361
Q -51 429 45 429
Q 122 429 250 358
Q 346 301 416 301
Q 525 301 742 614
L 1267 1357
L 1088 2150
Q 1024 2432 969 2509
Q 915 2586 794 2586
Q 717 2586 544 2541
L 429 2509
L 410 2611
L 480 2637
Q 992 2822 1229 2822
Q 1350 2822 1420 2707
Q 1491 2592 1555 2272
z
" transform="scale(0.015625)"/>
     <path id="STIXGeneral-Italic-5c" d="M 1555 1190
L 1690 486
Q 2118 1190 2294 1558
Q 2470 1926 2470 2131
Q 2470 2234 2304 2336
Q 2138 2445 2138 2586
Q 2138 2688 2211 2755
Q 2285 2822 2394 2822
Q 2534 2822 2630 2720
Q 2726 2618 2726 2470
Q 2726 1914 1888 518
Q 1389 -307 918 -812
Q 448 -1318 173 -1318
Q 26 -1318 -64 -1241
Q -154 -1165 -154 -1043
Q -154 -934 -80 -860
Q -6 -787 96 -787
Q 218 -787 314 -876
Q 410 -966 486 -966
Q 602 -966 794 -755
Q 877 -672 1040 -457
Q 1203 -243 1248 -173
Q 1312 -45 1312 51
Q 1312 243 1113 1046
Q 915 1850 787 2176
Q 698 2413 592 2499
Q 486 2586 294 2586
Q 192 2586 96 2560
L 96 2669
Q 237 2694 301 2707
Q 563 2758 986 2822
L 1011 2822
Q 1082 2822 1277 2227
Q 1472 1632 1555 1190
z
" transform="scale(0.015625)"/>
     <path id="STIXGeneral-Regular-e" d="M 4070 1408
L 2400 1408
L 2400 -262
L 1978 -262
L 1978 1408
L 307 1408
L 307 1830
L 1978 1830
L 1978 3501
L 2400 3501
L 2400 1830
L 4070 1830
L 4070 1408
z
" transform="scale(0.015625)"/>
     <path id="STIXGeneral-Regular-3b" d="M 4506 0
L 2611 0
L 2611 122
L 2778 134
Q 3098 154 3098 320
Q 3098 461 2771 947
L 2163 1850
L 1402 896
Q 1062 474 1062 326
Q 1062 230 1168 185
Q 1274 141 1549 122
L 1549 0
L 64 0
L 64 122
Q 314 147 470 268
Q 627 390 992 851
L 1990 2099
L 1312 3091
Q 864 3744 665 3913
Q 467 4083 141 4115
L 141 4237
L 2067 4237
L 2067 4115
L 1882 4109
Q 1734 4102 1660 4064
Q 1587 4026 1587 3923
Q 1587 3885 1596 3843
Q 1606 3802 1635 3744
Q 1664 3686 1689 3638
Q 1715 3590 1769 3507
Q 1824 3424 1862 3366
Q 1901 3309 1984 3190
Q 2067 3072 2118 2995
L 2400 2586
L 3117 3482
Q 3373 3795 3373 3910
Q 3373 4019 3283 4064
Q 3194 4109 2938 4115
L 2938 4237
L 4454 4237
L 4454 4115
Q 4147 4096 3968 3977
Q 3789 3859 3482 3482
L 2566 2349
L 3795 595
Q 3981 326 4115 240
Q 4250 154 4506 122
L 4506 0
z
" transform="scale(0.015625)"/>
     <path id="STIXGeneral-Regular-3c" d="M 4499 4237
L 4499 4115
Q 4218 4090 4054 3955
Q 3891 3821 3616 3398
L 2669 1939
L 2669 710
Q 2669 346 2790 243
Q 2912 141 3328 122
L 3328 0
L 1370 0
L 1370 122
Q 1805 154 1910 259
Q 2016 365 2016 787
L 2016 1882
L 1178 3110
Q 742 3750 556 3926
Q 371 4102 141 4115
L 141 4237
L 1926 4237
L 1926 4115
L 1773 4109
Q 1472 4102 1472 3942
Q 1472 3808 1587 3642
L 2522 2227
L 3450 3648
Q 3539 3782 3539 3917
Q 3533 4026 3440 4067
Q 3347 4109 3104 4115
L 3104 4237
L 4499 4237
z
" transform="scale(0.015625)"/>
     <path id="STIXGeneral-Regular-32" d="M 4403 2118
Q 4403 1133 3820 521
Q 3238 -90 2310 -90
Q 1376 -90 797 524
Q 218 1139 218 2138
Q 218 3110 797 3718
Q 1376 4326 2310 4326
Q 3245 4326 3824 3702
Q 4403 3078 4403 2118
z
M 3674 2157
Q 3674 2701 3520 3133
Q 3366 3565 3091 3795
Q 2733 4096 2304 4096
Q 1760 4096 1389 3667
Q 1184 3437 1065 3011
Q 947 2586 947 2125
Q 947 960 1523 429
Q 1837 141 2317 141
Q 2816 141 3142 448
Q 3674 960 3674 2157
z
" transform="scale(0.015625)"/>
     <path id="STIXGeneral-Regular-31" d="M 4525 4237
L 4525 4115
Q 4198 4083 4102 4000
Q 4000 3910 3958 3756
Q 3917 3603 3917 3245
L 3917 -70
L 3802 -70
L 979 3443
L 979 960
Q 979 474 1088 323
Q 1197 173 1574 122
L 1574 0
L 77 0
L 77 122
Q 474 166 586 310
Q 698 454 698 960
L 698 3776
Q 531 3981 416 4048
Q 301 4115 77 4115
L 77 4237
L 1165 4237
L 3635 1146
L 3635 3322
Q 3635 3808 3514 3949
Q 3437 4032 3344 4061
Q 3251 4090 3008 4115
L 3008 4237
L 4525 4237
z
" transform="scale(0.015625)"/>
    </defs>
    <use xlink:href="#STIXGeneral-Italic-3a" transform="translate(0 0.384375)"/>
    <use xlink:href="#STIXGeneral-Italic-48" transform="translate(83.299927 -14.615625) scale(0.7)"/>
    <use xlink:href="#STIXGeneral-Regular-20" transform="translate(138.879901 0.384375)"/>
    <use xlink:href="#STIXGeneral-Regular-50" transform="translate(227.37984 0.384375)"/>
    <use xlink:href="#STIXGeneral-Regular-44" transform="translate(305.179767 0.384375)"/>
    <use xlink:href="#STIXGeneral-Regular-5b" transform="translate(349.57973 0.384375)"/>
    <use xlink:href="#STIXGeneral-Regular-b" transform="translate(399.579684 0.384375)"/>
    <use xlink:href="#STIXGeneral-Italic-3a" transform="translate(432.879657 0.384375)"/>
    <use xlink:href="#STIXGeneral-Regular-f" transform="translate(516.179584 0.384375)"/>
    <use xlink:href="#STIXGeneral-Regular-50" transform="translate(561.179553 0.384375)"/>
    <use xlink:href="#STIXGeneral-Regular-4c" transform="translate(638.97948 0.384375)"/>
    <use xlink:href="#STIXGeneral-Regular-51" transform="translate(666.779453 0.384375)"/>
    <use xlink:href="#STIXGeneral-Regular-b" transform="translate(716.779407 0.384375)"/>
    <use xlink:href="#STIXGeneral-Italic-2b" transform="translate(750.079379 0.384375)"/>
    <use xlink:href="#STIXGeneral-Regular-f" transform="translate(822.279315 0.384375)"/>
    <use xlink:href="#STIXGeneral-Regular-14" transform="translate(867.279285 0.384375)"/>
    <use xlink:href="#STIXGeneral-Regular-c" transform="translate(917.279239 0.384375)"/>
    <use xlink:href="#STIXGeneral-Regular-c" transform="translate(950.579211 0.384375)"/>
    <use xlink:href="#STIXGeneral-Regular-f" transform="translate(983.879184 0.384375)"/>
    <use xlink:href="#STIXGeneral-Italic-27" transform="translate(1228.879153 0.384375)"/>
    <use xlink:href="#STIXGeneral-Regular-15" transform="translate(1311.641433 41.684375) scale(0.7)"/>
    <use xlink:href="#STIXGeneral-Italic-4c" transform="translate(1301.079089 -30.515625) scale(0.7)"/>
    <use xlink:href="#STIXGeneral-Regular-20" transform="translate(1371.141401 0.384375)"/>
    <use xlink:href="#STIXGeneral-Italic-55" transform="translate(1459.64134 0.384375)"/>
    <use xlink:href="#STIXGeneral-Regular-15" transform="translate(1504.650991 41.684375) scale(0.7)"/>
    <use xlink:href="#STIXGeneral-Italic-5b" transform="translate(1498.541303 -30.515625) scale(0.7)"/>
    <use xlink:href="#STIXGeneral-Italic-5c" transform="translate(1529.621278 -30.515625) scale(0.7)"/>
    <use xlink:href="#STIXGeneral-Regular-f" transform="translate(1560.701252 -30.515625) scale(0.7)"/>
    <use xlink:href="#STIXGeneral-Italic-4c" transform="translate(1592.201231 -30.515625) scale(0.7)"/>
    <use xlink:href="#STIXGeneral-Regular-e" transform="translate(1636.161212 0.384375)"/>
    <use xlink:href="#STIXGeneral-Italic-3a" transform="translate(1724.661151 0.384375)"/>
    <use xlink:href="#STIXGeneral-Regular-15" transform="translate(1818.523421 41.684375) scale(0.7)"/>
    <use xlink:href="#STIXGeneral-Italic-48" transform="translate(1807.961077 -30.515625) scale(0.7)"/>
    <use xlink:href="#STIXGeneral-Regular-b" transform="translate(1958.023389 0.384375)"/>
    <use xlink:href="#STIXGeneral-Regular-3b" transform="translate(1991.323362 0.384375)"/>
    <use xlink:href="#STIXGeneral-Regular-3c" transform="translate(2063.523297 0.384375)"/>
    <use xlink:href="#STIXGeneral-Regular-32" transform="translate(2169.056233 0.384375)"/>
    <use xlink:href="#STIXGeneral-Regular-31" transform="translate(2241.256169 0.384375)"/>
    <use xlink:href="#STIXGeneral-Regular-c" transform="translate(2313.456105 0.384375)"/>
   </g>
  </g>
 </g>
</svg>
